<?xml version="1.0" encoding="UTF-8" standalone="no"?>
<!DOCTYPE svg PUBLIC "-//W3C//DTD SVG 1.1//EN" "http://www.w3.org/Graphics/SVG/1.1/DTD/svg11.dtd">
<svg width="100%" height="100%" viewBox="0 0 800 800" version="1.1" xmlns="http://www.w3.org/2000/svg" xmlns:xlink="http://www.w3.org/1999/xlink" xml:space="preserve" xmlns:serif="http://www.serif.com/" style="fill-rule:evenodd;clip-rule:evenodd;stroke-linejoin:round;stroke-miterlimit:2;">
    <path d="M0,100.261C0,44.888 44.888,0 100.261,0L699.739,0C755.112,0 800,44.888 800,100.261L800,699.739C800,755.112 755.112,800 699.739,800L100.261,800C44.888,800 0,755.112 -0,699.739L0,100.261Z" style="fill:rgb(247,223,30);fill-rule:nonzero;"/>
    <path d="M210.35,668.537L271.569,631.487C283.381,652.428 294.125,670.147 319.897,670.147C344.6,670.147 360.178,660.484 360.178,622.897L360.178,367.278L435.356,367.278L435.356,623.959C435.356,701.825 389.712,737.269 323.119,737.269C262.978,737.269 228.069,706.122 210.347,668.531M476.191,660.481L537.403,625.041C553.519,651.356 574.463,670.688 611.513,670.688C642.666,670.688 662.528,655.112 662.528,633.631C662.528,607.856 642.122,598.725 607.753,583.694L588.963,575.631C534.722,552.547 498.744,523.547 498.744,462.328C498.744,405.941 541.703,362.978 608.831,362.978C656.625,362.978 690.994,379.628 715.694,423.125L657.156,460.719C644.266,437.628 630.309,428.5 608.828,428.5C586.809,428.5 572.847,442.462 572.847,460.719C572.847,483.272 586.809,492.406 619.028,506.369L637.822,514.422C701.728,541.813 737.706,569.734 737.706,632.559C737.706,700.228 684.544,737.278 613.122,737.278C543.313,737.278 498.203,703.984 476.188,660.484" style="fill-rule:nonzero;"/>
</svg>
