<svg width="61" height="61" viewBox="0 0 61 61" fill="none" xmlns="http://www.w3.org/2000/svg">
<g clip-path="url(#clip0_57_919)">
<path d="M4.00567 14.9031C-1.30933 22.5381 -0.649332 32.4681 3.41317 40.5756C3.50567 40.7731 3.60817 40.9606 3.70817 41.1481C3.76567 41.2781 3.83067 41.3981 3.90067 41.5231C3.93317 41.5906 3.97817 41.6631 4.01817 41.7281C4.08317 41.8581 4.15317 41.9831 4.22067 42.1081L4.61317 42.7731C4.68817 42.8956 4.75567 43.0156 4.83817 43.1381C4.97817 43.3731 5.13817 43.6056 5.28317 43.8406C5.34817 43.9406 5.40817 44.0356 5.48067 44.1331C5.72309 44.5147 5.98165 44.8859 6.25567 45.2456C6.45067 45.5131 6.64567 45.7731 6.85567 46.0331C6.92317 46.1281 7.00067 46.2231 7.07067 46.3206L7.62067 46.9931C7.69067 47.0681 7.75817 47.1606 7.83067 47.2406C8.07567 47.5356 8.33567 47.8231 8.59567 48.1156L8.60817 48.1306C8.92562 48.531 9.28148 48.8994 9.67067 49.2306C9.87067 49.4381 10.0707 49.6431 10.2832 49.8431L10.5357 50.0856C10.8132 50.3481 11.0932 50.6081 11.3857 50.8581C11.3907 50.8581 11.3932 50.863 11.3982 50.8656L11.5407 50.9906C11.7957 51.2131 12.0532 51.4356 12.3157 51.6406L12.6282 51.9031C12.8407 52.0731 13.0632 52.2356 13.2782 52.4031L13.6207 52.6656C13.8532 52.8406 14.1007 53.0131 14.3382 53.183C14.4257 53.2455 14.5132 53.308 14.6032 53.3656L14.6782 53.423L15.3782 53.8856L15.6782 54.0855C16.0482 54.3205 16.4132 54.5456 16.7782 54.7656C16.8807 54.8156 16.9882 54.8755 17.0857 54.9356C17.3557 55.0905 17.6357 55.2481 17.9082 55.3931C18.0582 55.4781 18.2132 55.5506 18.3682 55.6281C18.5557 55.7331 18.7507 55.8356 18.9532 55.9406C19.0015 55.9553 19.0484 55.9746 19.0932 55.9981C19.1757 56.0356 19.2532 56.0756 19.3332 56.1156C19.6332 56.2655 19.9457 56.4106 20.2707 56.5531C20.3307 56.5781 20.3957 56.6031 20.4607 56.6381C20.8207 56.7955 21.1832 56.9456 21.5557 57.0931C21.6407 57.118 21.7307 57.1605 21.8182 57.1931C22.1557 57.3205 22.5032 57.4506 22.8457 57.5731L22.9707 57.618C23.3557 57.748 23.7332 57.8731 24.1207 57.9931C24.2107 58.0181 24.3032 58.0505 24.3982 58.0756C24.7982 58.1955 25.1832 58.338 25.5832 58.418C51.2657 63.098 58.7282 42.9756 58.7282 42.9756C52.4582 51.1406 41.3332 53.293 30.7932 50.8981C30.4032 50.8081 30.0132 50.6831 29.6182 50.5681C29.1424 50.4268 28.6698 50.2751 28.2007 50.1131L28.0457 50.0531C27.7057 49.9381 27.3782 49.8106 27.0457 49.6831C26.9552 49.6464 26.8635 49.6131 26.7707 49.5831C26.4007 49.4331 26.0457 49.2806 25.6882 49.1231C25.6107 49.0981 25.5457 49.063 25.4682 49.0331C25.1653 48.894 24.8636 48.7523 24.5632 48.6081C24.4731 48.5682 24.3847 48.5249 24.2982 48.4781C24.0632 48.368 23.8282 48.2406 23.5982 48.1206C23.4402 48.0447 23.2843 47.9647 23.1307 47.8806C22.8457 47.7306 22.5632 47.5681 22.2807 47.4131C22.1957 47.3531 22.0982 47.3031 22.0007 47.2481C21.6312 47.029 21.2653 46.804 20.9032 46.5731C20.8027 46.5114 20.7043 46.4463 20.6082 46.3781C20.3429 46.2137 20.0827 46.0411 19.8282 45.8606C19.7407 45.8031 19.6607 45.7406 19.5707 45.6781C19.3215 45.5061 19.0756 45.3294 18.8332 45.1481C18.7282 45.0631 18.6157 44.9831 18.5032 44.8981C18.2832 44.7231 18.0607 44.5606 17.8407 44.3781L17.5457 44.1406C17.2617 43.913 16.9825 43.6796 16.7082 43.4406C16.6798 43.4119 16.6489 43.3859 16.6157 43.3631L15.7482 42.5731L15.4982 42.3381C15.2932 42.1281 15.0832 41.9281 14.8732 41.7231L14.6282 41.4731C14.3641 41.2103 14.1065 40.941 13.8557 40.6656L13.8182 40.6256C13.5532 40.3356 13.2932 40.0381 13.0357 39.7381C12.9682 39.6631 12.9032 39.5781 12.8357 39.4956L12.2682 38.8031C11.9799 38.4327 11.6965 38.0585 11.4182 37.6806C5.57317 29.7031 3.45817 18.6881 8.13567 9.65556M20.4932 8.47306C16.6432 14.0006 16.8582 21.3956 19.8582 27.2431C20.3539 28.227 20.9204 29.1736 21.5532 30.0756C22.1282 30.9006 22.7632 31.8781 23.5357 32.5456C23.8032 32.8506 24.0932 33.1456 24.3957 33.4456L24.6207 33.6706C24.9057 33.9456 25.2007 34.2131 25.4957 34.4831L25.5357 34.5156C25.8728 34.8099 26.218 35.095 26.5707 35.3706C26.6557 35.4281 26.7282 35.4956 26.8107 35.5531C27.1607 35.8231 27.5157 36.0831 27.8807 36.3431L27.9182 36.3656C28.0732 36.4781 28.2382 36.5806 28.4132 36.6906C28.4832 36.7356 28.5632 36.7956 28.6382 36.8406C28.9032 37.0106 29.1632 37.1706 29.4332 37.3331C29.4757 37.3506 29.5132 37.3731 29.5532 37.3906C29.7782 37.5281 30.0232 37.6606 30.2582 37.7831C30.3407 37.8331 30.4207 37.8706 30.5082 37.9181C30.6732 38.0006 30.8382 38.0881 31.0007 38.1731L31.0807 38.2081C31.4182 38.3756 31.7632 38.5306 32.1007 38.6831C32.1857 38.7181 32.2582 38.7456 32.3307 38.7806C32.6082 38.9006 32.8907 39.0156 33.1707 39.1231C33.2957 39.1656 33.4132 39.2156 33.5307 39.2531C33.7857 39.3481 34.0557 39.4356 34.3057 39.5231L34.6557 39.6356C35.0232 39.7481 35.3932 39.8956 35.7782 39.9606C55.6032 43.2431 60.1932 27.9731 60.1932 27.9731C56.0607 33.9231 48.0632 36.7556 39.5407 34.5431C39.1634 34.4456 38.7891 34.3372 38.4182 34.2181C38.2982 34.1831 38.1932 34.1456 38.0782 34.1106C37.8182 34.0206 37.5507 33.9356 37.2982 33.8381L36.9382 33.7031C36.6557 33.5906 36.3707 33.4856 36.0982 33.3656C36.0132 33.3281 35.9357 33.3031 35.8707 33.2656C35.5207 33.1081 35.1682 32.9531 34.8257 32.7856L34.3107 32.5181L34.0132 32.3681C33.789 32.249 33.5681 32.124 33.3507 31.9931C33.2974 31.9669 33.2456 31.9377 33.1957 31.9056C32.9307 31.7406 32.6532 31.5806 32.4007 31.4106C32.3157 31.3631 32.2382 31.3056 32.1582 31.2556L31.6382 30.9156C31.2782 30.6656 30.9257 30.3956 30.5682 30.1331C30.4882 30.0606 30.4107 30.0006 30.3332 29.9356C26.5857 26.9906 23.6307 22.9606 22.2282 18.4031C20.7532 13.6606 21.0782 8.34556 23.6282 4.02807M34.3582 3.66057C32.0857 6.99556 31.8682 11.1356 33.4332 14.8106C35.0957 18.7181 38.4932 21.7856 42.4532 23.2356C42.6157 23.2981 42.7732 23.3506 42.9432 23.4106L43.1632 23.4781C43.3932 23.5531 43.6257 23.6356 43.8632 23.6881C54.8157 25.8006 57.7807 18.0631 58.5782 16.9281C55.9707 20.6731 51.5982 21.5706 46.2332 20.2656C45.7961 20.1563 45.3654 20.0228 44.9432 19.8656C44.4174 19.6811 43.9017 19.4692 43.3982 19.2306C42.4451 18.7696 41.5392 18.217 40.6932 17.5806C35.8882 13.9381 32.9107 6.99056 36.0457 1.33057" fill="#0868AB"/>
</g>
<defs>
<clipPath id="clip0_57_919">
<rect width="60" height="60" fill="white" transform="translate(0.193176 0.228027)"/>
</clipPath>
</defs>
</svg>
